<svg xmlns="http://www.w3.org/2000/svg" width="296" height="60" viewBox="0 0 296 60">
  <g id="グループ_305" data-name="グループ 305" transform="translate(-693 -5545)">
    <g id="長方形_55" data-name="長方形 55" transform="translate(693 5545)" fill="#f7f7f7" stroke="#e3e4e5" stroke-width="1">
      <rect width="296" height="60" rx="4" stroke="none"/>
      <rect x="0.5" y="0.5" width="295" height="59" rx="3.5" fill="none"/>
    </g>
    <g id="グループ_146" data-name="グループ 146" transform="translate(80.464 -11)">
      <text id="ログイン" transform="translate(722.568 5597)" font-size="24" font-family="YuGothicUI-Bold, Yu Gothic UI" font-weight="700"><tspan x="0" y="0">ログイン</tspan></text>
      <g id="lock_black_24dp" transform="translate(682.536 5572.985)">
        <path id="パス_1" data-name="パス 1" d="M0,0H30.032V30.032H0Z" fill="none"/>
        <path id="パス_2" data-name="パス 2" d="M21.519,9.759H20.267v-2.5a6.257,6.257,0,1,0-12.513,0v2.5H6.5a2.51,2.51,0,0,0-2.5,2.5V24.776a2.51,2.51,0,0,0,2.5,2.5H21.519a2.51,2.51,0,0,0,2.5-2.5V12.262A2.51,2.51,0,0,0,21.519,9.759ZM14.011,21.021a2.5,2.5,0,1,1,2.5-2.5A2.51,2.51,0,0,1,14.011,21.021ZM17.89,9.759H10.132v-2.5a3.879,3.879,0,0,1,7.758,0Z" transform="translate(1.005 0.251)"/>
      </g>
    </g>
    <g id="arrow_circle_right_black_24dp" transform="translate(954.993 5563.161)">
      <g id="グループ_1" data-name="グループ 1" transform="translate(-0.064 -0.232)">
        <rect id="長方形_4" data-name="長方形 4" width="24" height="24" transform="translate(0.071 0.071)" fill="none"/>
      </g>
      <g id="グループ_2" data-name="グループ 2" transform="translate(2.756 2.288)">
        <path id="パス_3" data-name="パス 3" d="M20.72,11.36a9.36,9.36,0,1,0-9.36,9.36A9.364,9.364,0,0,0,20.72,11.36Zm-9.36.936H7.616V10.424H11.36V7.616L15.1,11.36,11.36,15.1Z" transform="translate(-2 -2)"/>
      </g>
    </g>
  </g>
</svg>
