<svg xmlns="http://www.w3.org/2000/svg" width="296" height="60" viewBox="0 0 296 60">
  <g id="グループ_304" data-name="グループ 304" transform="translate(-377 -5545)">
    <rect id="長方形_56" data-name="長方形 56" width="296" height="60" rx="4" transform="translate(377 5545)" fill="#ff6565"/>
    <g id="arrow_circle_right_black_24dp" transform="translate(638.657 5562.577)">
      <g id="グループ_1" data-name="グループ 1" transform="translate(0.058 0.138)">
        <rect id="長方形_4" data-name="長方形 4" width="24" height="24" transform="translate(0.284 0.285)" fill="none"/>
      </g>
      <g id="グループ_2" data-name="グループ 2" transform="translate(3.419 2.395)">
        <path id="パス_3" data-name="パス 3" d="M20.992,11.5a9.5,9.5,0,1,0-9.5,9.5A9.5,9.5,0,0,0,20.992,11.5Zm-9.5.95H7.7v-1.9h3.8V7.7l3.8,3.8-3.8,3.8Z" transform="translate(-2 -2)" fill="#fff"/>
      </g>
    </g>
    <g id="グループ_147" data-name="グループ 147" transform="translate(54 -10)">
      <text id="無料登録" transform="translate(439 5596)" fill="#fff" font-size="24" font-family="Noto Sans JP, sans-serif" font-weight="700"><tspan x="0" y="0">無料登録</tspan></text>
      <g id="person_add_alt_1_black_24dp" transform="translate(382.784 5567.083)">
        <g id="グループ_3" data-name="グループ 3" transform="translate(0.216 0.246)">
          <rect id="長方形_5" data-name="長方形 5" width="36" height="36" transform="translate(0 -0.328)" fill="none"/>
        </g>
        <g id="グループ_4" data-name="グループ 4" transform="translate(0.923 6.196)">
          <path id="パス_4" data-name="パス 4" d="M19.337,10.112a6.112,6.112,0,1,0-6.112,6.112A6.111,6.111,0,0,0,19.337,10.112Zm3.056,3.056v3.056h4.584v4.584h3.056V16.225h4.584V13.169H30.034V8.584H26.978v4.584ZM1,25.393v3.056H25.449V25.393c0-4.065-8.145-6.112-12.225-6.112S1,21.329,1,25.393Z" transform="translate(-1 -4)" fill="#fff"/>
        </g>
      </g>
    </g>
  </g>
</svg>
