<svg xmlns="http://www.w3.org/2000/svg" width="65" height="65" viewBox="0 0 65 65">
  <g id="グループ_305" data-name="グループ 305" transform="translate(-1151 -5510)">
    <path id="長方形_62" data-name="長方形 62" d="M10,0H55A10,10,0,0,1,65,10V65a0,0,0,0,1,0,0H0a0,0,0,0,1,0,0V10A10,10,0,0,1,10,0Z" transform="translate(1151 5510)" fill="#0a2843"/>
    <g id="グループ_304" data-name="グループ 304">
      <g id="arrow_circle_right_black_24dp" transform="translate(1155.653 5571.851) rotate(-90)">
        <g id="グループ_1" data-name="グループ 1" transform="translate(-0.413 -0.917)">
          <rect id="長方形_4" data-name="長方形 4" width="58" height="58" transform="translate(0.264 0.264)" fill="none"/>
        </g>
        <g id="グループ_2" data-name="グループ 2" transform="translate(5.454 6.223)">
          <path id="パス_3" data-name="パス 3" d="M47.52,24.76A22.76,22.76,0,1,0,24.76,47.52,22.768,22.768,0,0,0,47.52,24.76ZM24.76,27.036h-9.1V22.484h9.1V15.656l9.1,9.1-9.1,9.1Z" transform="translate(-2 -2)" fill="#fff"/>
        </g>
      </g>
    </g>
  </g>
</svg>
