<svg xmlns="http://www.w3.org/2000/svg" width="120" height="40" viewBox="0 0 120 40">
  <g id="グループ_306" data-name="グループ 306" transform="translate(-933 -20)">
    <rect id="長方形_3" data-name="長方形 3" width="120" height="40" rx="4" transform="translate(933 20)" fill="#ff6565"/>
    <g id="arrow_circle_right_black_24dp" transform="translate(1028.992 30.273)">
      <g id="グループ_1" data-name="グループ 1" transform="translate(-0.607 -0.273)">
        <rect id="長方形_4" data-name="長方形 4" width="20" height="20" transform="translate(-0.386)" fill="none"/>
      </g>
      <g id="グループ_2" data-name="グループ 2" transform="translate(1.819 1.686)">
        <path id="パス_3" data-name="パス 3" d="M17.229,9.614a7.614,7.614,0,1,0-7.614,7.614A7.617,7.617,0,0,0,17.229,9.614Zm-7.614.761H6.569V8.853H9.614V6.569L12.66,9.614,9.614,12.66Z" transform="translate(-2 -2)" fill="#fff"/>
      </g>
    </g>
    <g id="グループ_5" data-name="グループ 5" transform="translate(10)">
      <text id="無料登録" transform="translate(960 46)" fill="#fff" font-size="14" font-family="YuGothicUI-Bold, Yu Gothic UI" font-weight="700"><tspan x="0" y="0">無料登録</tspan></text>
      <g id="person_add_alt_1_black_24dp" transform="translate(932.68 29)">
        <g id="グループ_3" data-name="グループ 3" transform="translate(0.32)">
          <rect id="長方形_5" data-name="長方形 5" width="22" height="22" transform="translate(0 0)" fill="none"/>
        </g>
        <g id="グループ_4" data-name="グループ 4" transform="translate(0.84 3.736)">
          <path id="パス_4" data-name="パス 4" d="M12.207,7.736a3.736,3.736,0,1,0-3.736,3.736A3.735,3.735,0,0,0,12.207,7.736ZM14.075,9.6v1.868h2.8v2.8h1.868v-2.8h2.8V9.6h-2.8V6.8H16.877V9.6ZM1,17.075v1.868H15.943V17.075c0-2.484-4.978-3.736-7.472-3.736S1,14.591,1,17.075Z" transform="translate(-1 -4)" fill="#fff"/>
        </g>
      </g>
    </g>
  </g>
</svg>
