<svg xmlns="http://www.w3.org/2000/svg" width="40" height="40" viewBox="0 0 40 40">
  <rect id="長方形_143" data-name="長方形 143" width="40" height="40" rx="2" fill="#fff"/>
  <g id="グループ_224" data-name="グループ 224" transform="translate(7.643 7.643)">
    <path id="パス_177" data-name="パス 177" d="M17.259,6.454c3.519,0,3.936.013,5.326.077a7.3,7.3,0,0,1,2.447.454,4.365,4.365,0,0,1,2.5,2.5,7.294,7.294,0,0,1,.454,2.447c.063,1.39.077,1.807.077,5.326s-.013,3.936-.077,5.326a7.3,7.3,0,0,1-.454,2.447,4.365,4.365,0,0,1-2.5,2.5,7.3,7.3,0,0,1-2.447.454c-1.39.063-1.806.077-5.326.077s-3.936-.013-5.326-.077a7.3,7.3,0,0,1-2.447-.454,4.365,4.365,0,0,1-2.5-2.5,7.3,7.3,0,0,1-.454-2.447c-.063-1.39-.077-1.807-.077-5.326s.013-3.936.077-5.326a7.3,7.3,0,0,1,.454-2.447,4.365,4.365,0,0,1,2.5-2.5,7.3,7.3,0,0,1,2.447-.454c1.39-.063,1.807-.077,5.326-.077m0-2.375c-3.579,0-4.028.015-5.434.079a9.674,9.674,0,0,0-3.2.613A6.739,6.739,0,0,0,4.771,8.625a9.674,9.674,0,0,0-.613,3.2c-.064,1.406-.079,1.855-.079,5.434s.015,4.028.079,5.434a9.674,9.674,0,0,0,.613,3.2,6.739,6.739,0,0,0,3.855,3.855,9.674,9.674,0,0,0,3.2.613c1.406.064,1.855.079,5.434.079s4.028-.015,5.434-.079a9.674,9.674,0,0,0,3.2-.613,6.739,6.739,0,0,0,3.855-3.855,9.674,9.674,0,0,0,.613-3.2c.064-1.406.079-1.855.079-5.434s-.015-4.028-.079-5.434a9.674,9.674,0,0,0-.613-3.2,6.739,6.739,0,0,0-3.855-3.855,9.674,9.674,0,0,0-3.2-.613c-1.406-.064-1.855-.079-5.434-.079Z" transform="translate(-4.079 -4.079)" fill="#0a2843"/>
    <path id="パス_178" data-name="パス 178" d="M133.4,126.635a6.768,6.768,0,1,0,6.768,6.768A6.768,6.768,0,0,0,133.4,126.635Zm0,11.161A4.393,4.393,0,1,1,137.8,133.4,4.393,4.393,0,0,1,133.4,137.8Z" transform="translate(-120.223 -120.223)" fill="#0a2843"/>
    <ellipse id="楕円形_26" data-name="楕円形 26" cx="1.582" cy="1.582" rx="1.582" ry="1.582" transform="translate(18.633 4.563)" fill="#0a2843"/>
  </g>
</svg>
