<svg xmlns="http://www.w3.org/2000/svg" width="40" height="40" viewBox="0 0 40 40">
  <g id="グループ_296" data-name="グループ 296" transform="translate(-141 -6704)">
    <rect id="長方形_144" data-name="長方形 144" width="40" height="40" rx="2" transform="translate(141 6704)" fill="#fff"/>
    <g id="Logo_FIXED" data-name="Logo — FIXED" transform="translate(146.872 6712.917)">
      <path id="パス_176" data-name="パス 176" d="M83.67,120.583A15.825,15.825,0,0,0,99.6,104.655c0-.24,0-.48-.011-.721a11.405,11.405,0,0,0,2.795-2.9,11.346,11.346,0,0,1-3.221.884,5.632,5.632,0,0,0,2.467-3.1,11.135,11.135,0,0,1-3.559,1.354A5.6,5.6,0,0,0,88.386,104a6.187,6.187,0,0,0,.142,1.277,15.9,15.9,0,0,1-11.539-5.852,5.621,5.621,0,0,0,1.736,7.478,5.662,5.662,0,0,1-2.533-.7v.076a5.61,5.61,0,0,0,4.487,5.491,5.631,5.631,0,0,1-2.522.1,5.6,5.6,0,0,0,5.229,3.886,11.228,11.228,0,0,1-6.954,2.4,10.772,10.772,0,0,1-1.332-.076,15.924,15.924,0,0,0,8.57,2.5" transform="translate(-75.1 -98.4)" fill="#0a2843"/>
    </g>
  </g>
</svg>
