<svg xmlns="http://www.w3.org/2000/svg" width="40" height="40" viewBox="0 0 40 40">
  <g id="グループ_297" data-name="グループ 297" transform="translate(-251 -6704)">
    <rect id="長方形_142" data-name="長方形 142" width="40" height="40" rx="2" transform="translate(251 6704)" fill="#fff"/>
    <g id="グループ_223" data-name="グループ 223" transform="translate(258 6714)">
      <path id="パス_180" data-name="パス 180" d="M642.017,377.507c-1.3-1.053-5.909-1.881-11.279-1.881s-9.975.827-11.28,1.881c-1.2.967-1.458,5.34-1.458,7.821s.258,6.854,1.458,7.822c1.305,1.053,5.909,1.881,11.28,1.881s9.975-.827,11.279-1.881c1.2-.968,1.458-5.34,1.458-7.822S643.217,378.474,642.017,377.507Zm-7.458,7.941-5.914,3.529a.139.139,0,0,1-.21-.119V381.8a.139.139,0,0,1,.07-.121.142.142,0,0,1,.14,0l5.914,3.53a.138.138,0,0,1,.067.119A.14.14,0,0,1,634.56,385.447Z" transform="translate(-618 -375.626)" fill="#0a2843"/>
    </g>
  </g>
</svg>
