<svg xmlns="http://www.w3.org/2000/svg" width="40" height="57" viewBox="0 0 40 57">
  <g id="グループ_299" data-name="グループ 299" transform="translate(-131 -6192)">
    <g id="グループ_246" data-name="グループ 246" transform="translate(-37 -100)">
      <rect id="長方形_103" data-name="長方形 103" width="40" height="40" rx="4" transform="translate(168 6292)" fill="#f7f7f7"/>
      <g id="lock_black_24dp" transform="translate(173.963 6297.963)">
        <path id="パス_1" data-name="パス 1" d="M0,0H28.069V28.069H0Z" fill="none"/>
        <path id="パス_2" data-name="パス 2" d="M20.374,9.187H19.2V6.848a5.848,5.848,0,0,0-11.7,0V9.187H6.339A2.346,2.346,0,0,0,4,11.526v11.7a2.346,2.346,0,0,0,2.339,2.339H20.374a2.346,2.346,0,0,0,2.339-2.339v-11.7A2.346,2.346,0,0,0,20.374,9.187ZM13.356,19.713A2.339,2.339,0,1,1,15.7,17.374,2.346,2.346,0,0,1,13.356,19.713ZM16.982,9.187H9.731V6.848a3.626,3.626,0,0,1,7.251,0Z" transform="translate(0.678 0.17)"/>
      </g>
    </g>
    <text id="Login" transform="translate(151 6246)" fill="#fff" font-size="12" font-family="Oswald-Regular, Oswald"><tspan x="-11.55" y="0">Login</tspan></text>
  </g>
</svg>
